<?xml version="1.0"?>
<svg width="340" height="250" xmlns="http://www.w3.org/2000/svg" xmlns:svg="http://www.w3.org/2000/svg" version="1.0">
 <defs>
  <linearGradient id="b" x1="0" x2="0" y1="1" y2="0">
   <stop offset="0%" stop-color="#6a12cb"/>
   <stop offset="100%" stop-color="#2575fc"/>
  </linearGradient>
  <filter filterUnits="userSpaceOnUse" id="c">
   <feColorMatrix values="0 0 0 0 0.99609375 0 0 0 0 0.99609375 0 0 0 0 0.99609375 0 0 0 1 0"/>
  </filter>
 </defs>
 <mask id="a">
  <g class="iconsvg-imagesvg" filter="url(#c)" id="svg_5">
   <path class="image-rect" d="m0,0l60,0l0,52.33l-60,0l0,-52.33z" fill="#0a0619" fill-opacity="0" id="svg_6" stroke-width="2"/>
   <g id="svg_3">
    <svg class="image-svg-svg primary" height="52.33" id="svg_7" width="60">
     <g id="svg_4">
      <svg id="svg_8" viewBox="0.01 -0.026 202.52 176.63" xmlns="http://www.w3.org/2000/svg">
       <path d="m95.29,50.15c-3.18,9.48 -6.17,18.36 -9.14,27.24c-1.67,5 -1.31,5.55 3.91,5.56q25.47,0.05 50.94,0.05l4.6,0c0.39,0.83 0.69,1.15 0.63,1.36c-4.07,12.68 -5.81,26.51 -17.91,35.16a34.65,34.65 0 0 1 -20.74,6.91c-11.06,0 -22.13,0.06 -33.19,-0.08c-3.35,0 -5.21,0.91 -6.25,4.39c-2.24,7.53 -5,14.9 -7.55,22.36a33.8,33.8 0 0 1 -32.7,23.5l-22.73,0c-1.48,0 -2.95,-0.18 -5.15,-0.33c1.91,-6.24 3.56,-12 5.45,-17.7c9.45,-28.4 19,-56.78 28.45,-85.19c4.52,-13.59 16.45,-23.07 30.73,-23.68c8.93,-0.38 17.88,-0.15 26.83,-0.14a26.36,26.36 0 0 1 3.82,0.59zm107.24,-49.98c-5.61,13.22 -6.16,27.6 -17.57,37.07c-5.89,4.89 -12.5,8.26 -20.17,8.36c-20.14,0.26 -40.28,0.15 -60.42,0.16a8.19,8.19 0 0 1 -1.92,-0.75c2,-6.12 4.18,-12.18 5.87,-18.37c4.68,-17.27 20.49,-27.25 37.11,-26.64c17.09,0.66 34.22,0.14 51.34,0.14l5.76,0.03z" fill="#25263a" id="svg_9"/>
      </svg>
     </g>
    </svg>
   </g>
  </g>
 </mask>
 <g class="layer">
  <title>Layer 1</title>
  <rect class="background" fill="#fff" height="65" id="svg_10" width="266" x="42" y="94"/>
  <g class="icon-text-wrapper icon-svg-group iconsvg" fill="#0a0619" id="svg_11">
   <g class="iconsvg-imagesvg" id="svg_12" mask="url(#a)" transform="translate(44.007 98.835)">
    <path class="image-rect" d="m0,0l60,0l0,52.33l-60,0l0,-52.33z" fill="none" id="svg_13"/>
    <g id="svg_1">
     <svg class="image-svg-svg primary" height="52.33" id="svg_14" width="60">
      <g id="svg_2">
       <svg id="svg_15" viewBox="0.01 -0.026 202.52 176.63" xmlns="http://www.w3.org/2000/svg">
        <path d="m95.29,50.15c-3.18,9.48 -6.17,18.36 -9.14,27.24c-1.67,5 -1.31,5.55 3.91,5.56q25.47,0.05 50.94,0.05l4.6,0c0.39,0.83 0.69,1.15 0.63,1.36c-4.07,12.68 -5.81,26.51 -17.91,35.16a34.65,34.65 0 0 1 -20.74,6.91c-11.06,0 -22.13,0.06 -33.19,-0.08c-3.35,0 -5.21,0.91 -6.25,4.39c-2.24,7.53 -5,14.9 -7.55,22.36a33.8,33.8 0 0 1 -32.7,23.5l-22.73,0c-1.48,0 -2.95,-0.18 -5.15,-0.33c1.91,-6.24 3.56,-12 5.45,-17.7c9.45,-28.4 19,-56.78 28.45,-85.19c4.52,-13.59 16.45,-23.07 30.73,-23.68c8.93,-0.38 17.88,-0.15 26.83,-0.14a26.36,26.36 0 0 1 3.82,0.59zm107.24,-49.98c-5.61,13.22 -6.16,27.6 -17.57,37.07c-5.89,4.89 -12.5,8.26 -20.17,8.36c-20.14,0.26 -40.28,0.15 -60.42,0.16a8.19,8.19 0 0 1 -1.92,-0.75c2,-6.12 4.18,-12.18 5.87,-18.37c4.68,-17.27 20.49,-27.25 37.11,-26.64c17.09,0.66 34.22,0.14 51.34,0.14l5.76,0.03z" fill="#25263a" id="svg_16"/>
       </svg>
      </g>
     </svg>
    </g>
    <path d="m0,0l72,0l0,64.33l-72,0l0,-64.33z" fill="url(#b)" id="svg_17" transform="translate(-6 -6)"/>
   </g>
   <path class="tp-name iconsvg-namesvg" d="m101.94,142.4l-7.26,0l0,-21.98l-4.65,1.61l-2.01,-4.64l7.46,-3.23l6.46,0l0,28.24zm38.73,-5.85l0,5.45q-9,0.8 -14.92,0.8q-3.96,0 -5.82,-1.86q-1.86,-1.84 -1.86,-5.81l0,-12.91q0,-4.23 1.92,-6.14q1.92,-1.91 6.16,-1.91l14.52,0l0,5.64l-12.91,0q-2.42,0 -2.42,2.42l0,12.9q0,0.94 0.55,1.49q0.53,0.54 1.39,0.54q0.84,0 1.85,-0.02q1.01,-0.03 2.1,-0.07q1.09,-0.04 2.2,-0.08q1.1,-0.04 2.86,-0.15q1.75,-0.13 4.38,-0.29zm10.28,0.61l1.02,0q2.13,0 4.83,-0.82l0,-2.41l-5.85,0q-0.6,0 -1,0.4q-0.4,0.4 -0.4,1.01l0,0.41q0,0.59 0.4,1.01q0.4,0.4 1,0.4zm-6.45,-10.7l0,-5.04q7.39,-0.81 13.32,-0.81q2.74,0 4.39,1.65q1.65,1.67 1.65,4.41l0,15.73l-6.25,0l-0.4,-2.01q-1.89,1.24 -3.89,1.83t-3.37,0.58l-1.42,0q-2.74,0 -4.39,-1.65q-1.65,-1.65 -1.65,-4.39l0,-1.82q0,-2.74 1.65,-4.39q1.65,-1.67 4.39,-1.67l8.27,0l0,-1.61q0,-0.6 -0.4,-1q-0.4,-0.4 -1,-0.4q-2.63,0 -5.8,0.23q-3.16,0.25 -5.1,0.36zm33.89,10.7l0,5.24q-2.7,0.4 -5.14,0.4q-2.45,0 -4.1,-1.65q-1.65,-1.65 -1.65,-4.39l0,-22.6l7.06,0l0,21.59q0,0.59 0.4,1.01q0.41,0.4 1.02,0.4l2.42,0l-0.01,0zm14.72,-11.5l-3.63,0q-1.61,0 -1.61,1.61l0,2.22l6.87,0l0,-2.22q0,-1.61 -1.63,-1.61zm7.88,11.29l0,5.05q-7.79,0.8 -14.13,0.8q-2.74,0 -4.39,-1.65q-1.66,-1.65 -1.66,-4.39l0,-9.69q0,-3.03 1.72,-4.74q1.72,-1.72 4.73,-1.72l8.08,0q3.02,0 4.74,1.72q1.72,1.72 1.72,4.74l0,7.47l-13.93,0l0,1.61q0,0.61 0.41,1.01q0.4,0.4 1.01,0.4q3.99,0 11.7,-0.61zm17.75,-10.49l-1.41,0q-2.14,0 -4.85,0.81l0,15.13l-7.06,0l0,-21.38l6.26,0l0.4,2.01q1.9,-1.25 3.9,-1.83q1.99,-0.59 3.37,-0.59l1.8,0q2.75,0 4.41,1.65q1.65,1.67 1.65,4.41l0,15.73l-7.06,0l0,-14.52q0,-0.61 -0.4,-1.01t-1.01,-0.41zm33.48,15.94l-6.25,0l-0.4,-2.01q-1.9,1.24 -3.9,1.83q-1.99,0.58 -3.37,0.58l-1.81,0q-2.74,0 -4.4,-1.65q-1.65,-1.65 -1.65,-4.39l0,-9.28q0,-3.03 1.71,-4.75q1.72,-1.71 4.75,-1.71l8.26,0l0,-6.85l7.06,0l0,28.23zm-13.31,-5.45l1.42,0q2.13,0 4.83,-0.8l0,-9.69l-6.05,0q-1.62,0 -1.62,1.61l0,7.47q0,0.61 0.41,1.01q0.4,0.4 1.01,0.4zm24.82,0.21l1,0q2.14,0 4.85,-0.82l0,-2.41l-5.85,0q-0.61,0 -1.02,0.4t-0.4,1.01l0,0.41q0,0.59 0.4,1.01q0.41,0.4 1.02,0.4zm-6.46,-10.7l0,-5.04q7.38,-0.81 13.31,-0.81q2.74,0 4.39,1.65q1.67,1.67 1.67,4.41l0,15.73l-6.26,0l-0.4,-2.01q-1.9,1.24 -3.9,1.83t-3.37,0.58l-1.41,0q-2.75,0 -4.4,-1.65q-1.65,-1.65 -1.65,-4.39l0,-1.82q0,-2.74 1.65,-4.39q1.65,-1.67 4.4,-1.67l8.28,0l0,-1.61q0,-0.6 -0.42,-1q-0.4,-0.4 -1,-0.4q-2.63,0 -5.78,0.23q-3.18,0.25 -5.11,0.36zm38.72,0.41l-3.43,0q-2.53,0 -5.24,1.2l0,14.33l-7.06,0l0,-21.38l6.26,0l0.4,2.62q3.47,-3.03 7.27,-3.03l1.8,0l0,6.26z" data-gra="path-name" id="svg_18"/>
  </g>
 </g>
</svg>